<svg width="860" height="787" viewBox="0 0 860 787" fill="none" xmlns="http://www.w3.org/2000/svg">
<path fill-rule="evenodd" clip-rule="evenodd" d="M364.417 115.765C443.668 86.1886 517.863 15.3993 599.405 37.874C682.15 60.6804 742.551 143.598 765.424 226.291C786.445 302.286 719.193 372.541 713.733 451.203C707.822 536.362 790.482 637.608 732.524 700.312C674.524 763.061 567.835 698.697 482.419 701.457C416.293 703.595 353.139 731.78 289.242 714.64C216.847 695.221 141.264 663.696 102.527 599.556C63.3876 534.75 71.8077 452.908 86.2909 378.597C99.8813 308.867 129.961 242.604 181.61 193.796C230.966 147.153 300.786 139.512 364.417 115.765Z" fill="#DDE7F5"/>
</svg>
